<svg width="32" height="30" viewBox="0 0 32 30" fill="none" xmlns="http://www.w3.org/2000/svg">
<path d="M27.8288 0.878268C27.8288 0.60933 28.0428 0.391312 28.3067 0.391312H31.1743C31.4383 0.391312 31.6522 0.60933 31.6522 0.878268V3.80001C31.6522 4.06895 31.4383 4.28696 31.1743 4.28696H28.3067C28.0428 4.28696 27.8288 4.06895 27.8288 3.80001V0.878268Z" fill="#F84239"/>
<path d="M31.1743 21.8174H17.7923C16.7365 21.8174 15.8806 22.6895 15.8806 23.7652C15.8806 24.841 15.0247 25.7131 13.9689 25.7131H0.825829C0.561876 25.7131 0.3479 25.9311 0.3479 26.2V29.1217C0.3479 29.3907 0.561876 29.6087 0.825829 29.6087H14.2078C15.2637 29.6087 16.1196 28.7366 16.1196 27.6609C16.1196 26.5851 16.9755 25.7131 18.0313 25.7131H31.1743C31.4383 25.7131 31.6522 25.495 31.6522 25.2261V22.3044C31.6522 22.0354 31.4383 21.8174 31.1743 21.8174Z" fill="#F84239"/>
<path d="M27.3509 11.1044H17.7923C16.7365 11.1044 15.8806 11.9764 15.8806 13.0522C15.8806 14.1279 15.0247 15 13.9689 15H5.60512C5.34117 15 5.12719 15.218 5.12719 15.487V18.4087C5.12719 18.6776 5.34117 18.8957 5.60512 18.8957H14.2078C15.2637 18.8957 16.1196 18.0236 16.1196 16.9478C16.1196 15.8721 16.9755 15 18.0313 15H27.3509C27.6148 15 27.8288 14.782 27.8288 14.5131V11.5913C27.8288 11.3224 27.6148 11.1044 27.3509 11.1044Z" fill="#F84239"/>
<path d="M23.5275 0.391312H17.7923C16.7365 0.391312 15.8806 1.26338 15.8806 2.33914C15.8806 3.41489 15.0247 4.28696 13.9689 4.28696H0.825829C0.561876 4.28696 0.3479 4.50498 0.3479 4.77392V7.69566C0.3479 7.9646 0.561876 8.18262 0.825829 8.18262H14.2078C15.2637 8.18262 16.1196 7.31054 16.1196 6.23479C16.1196 5.15904 16.9755 4.28696 18.0313 4.28696H23.5275C23.7914 4.28696 24.0054 4.06895 24.0054 3.80001V0.878268C24.0054 0.60933 23.7914 0.391312 23.5275 0.391312Z" fill="#F84239"/>
</svg>
