<svg width="16" height="17" viewBox="0 0 16 17" fill="none" xmlns="http://www.w3.org/2000/svg">
<path d="M5.33333 1.94202V4.60868M10.6667 1.94202V4.60868M2 7.27535H14M10 15.2753V12.6087C10 12.2551 10.1405 11.9159 10.3905 11.6659C10.6406 11.4158 10.9797 11.2753 11.3333 11.2753H14M14 11.942V4.60868C14 4.25506 13.8595 3.91592 13.6095 3.66587C13.3594 3.41583 13.0203 3.27535 12.6667 3.27535H3.33333C2.97971 3.27535 2.64057 3.41583 2.39052 3.66587C2.14048 3.91592 2 4.25506 2 4.60868V13.942C2 14.2956 2.14048 14.6348 2.39052 14.8848C2.64057 15.1349 2.97971 15.2753 3.33333 15.2753H10.6667L14 11.942Z" stroke="black" stroke-width="1.2" stroke-linecap="round" stroke-linejoin="round"/>
</svg>
