<svg width="16" height="17" viewBox="0 0 16 17" fill="none" xmlns="http://www.w3.org/2000/svg">
<path d="M1.37468 8.8407C1.31912 8.69102 1.31912 8.52638 1.37468 8.3767C1.91581 7.0646 2.83435 5.94273 4.01386 5.1533C5.19336 4.36387 6.58071 3.94244 8.00001 3.94244C9.41932 3.94244 10.8067 4.36387 11.9862 5.1533C13.1657 5.94273 14.0842 7.0646 14.6253 8.3767C14.6809 8.52638 14.6809 8.69102 14.6253 8.8407C14.0842 10.1528 13.1657 11.2747 11.9862 12.0641C10.8067 12.8535 9.41932 13.275 8.00001 13.275C6.58071 13.275 5.19336 12.8535 4.01386 12.0641C2.83435 11.2747 1.91581 10.1528 1.37468 8.8407Z" stroke="black" stroke-width="1.2" stroke-linecap="round" stroke-linejoin="round"/>
<path d="M8.00001 10.6087C9.10458 10.6087 10 9.71327 10 8.6087C10 7.50413 9.10458 6.6087 8.00001 6.6087C6.89544 6.6087 6.00001 7.50413 6.00001 8.6087C6.00001 9.71327 6.89544 10.6087 8.00001 10.6087Z" stroke="black" stroke-width="1.2" stroke-linecap="round" stroke-linejoin="round"/>
</svg>
